name Walk5.mot
datacolumns 19
datarows 22
range 2.32000000 2.42500000
endheader

                time	   L_ground_force_vx	   L_ground_force_vy	   L_ground_force_vz	   L_ground_force_px	   L_ground_force_py	   L_ground_force_pz	   R_ground_force_vx	   R_ground_force_vy	   R_ground_force_vz	   R_ground_force_px	   R_ground_force_py	   R_ground_force_pz	   L_ground_torque_x	   L_ground_torque_y	   L_ground_torque_z	   R_ground_torque_x	   R_ground_torque_y	   R_ground_torque_z	
          2.32000000	          2.02481172	          6.02275731	         -0.44396563	          0.17124637	          0.00000000	          0.08785601	          0.00000000	          0.00000000	          0.00000000	          0.00000000	          0.00000000	         -0.00000000	          0.00000000	         -0.00304282	          0.00000000	          0.00000000	         -0.00000000	          0.00000000	
          2.32500000	         -0.89078712	         -1.54119799	         -0.48250324	          0.12295528	          0.00000000	          0.06316834	          0.00000000	          0.00000000	          0.00000000	         -0.00000000	          0.00000000	         -0.00000000	          0.00000000	         -0.00379673	          0.00000000	          0.00000000	         -0.00000000	          0.00000000	
          2.33000000	         -2.69005369	         -6.26992586	         -0.46905649	          0.08226287	          0.00000000	          0.04234077	          0.00000000	          0.00000000	          0.00000000	         -0.00000000	          0.00000000	          0.00000000	          0.00000000	         -0.00397993	          0.00000000	          0.00000000	         -0.00000000	          0.00000000	
          2.33500000	         -3.63113777	         -8.80649212	         -0.42333666	          0.04966161	          0.00000000	          0.02563580	          0.00000000	          0.00000000	          0.00000000	         -0.00000000	          0.00000000	          0.00000000	          0.00000000	         -0.00378264	          0.00000000	          0.00000000	          0.00000000	          0.00000000	
          2.34000000	         -3.94745766	         -9.73665588	         -0.36053660	          0.02482742	          0.00000000	          0.01289575	          0.00000000	          0.00000000	          0.00000000	         -0.00000000	          0.00000000	          0.00000000	          0.00000000	         -0.00335696	          0.00000000	          0.00000000	          0.00000000	          0.00000000	
          2.34500000	         -3.83811131	         -9.56310013	         -0.29175006	          0.00693819	          0.00000000	          0.00370591	          0.00000000	          0.00000000	          0.00000000	         -0.00000000	          0.00000000	          0.00000000	          0.00000000	         -0.00281849	          0.00000000	          0.00000000	          0.00000000	          0.00000000	
          2.35000000	         -3.46444142	         -8.69547659	         -0.22456467	         -0.00508255	          0.00000000	         -0.00248046	          0.00000000	          0.00000000	          0.00000000	         -0.00000000	          0.00000000	          0.00000000	          0.00000000	         -0.00225027	          0.00000000	          0.00000000	          0.00000000	          0.00000000	
          2.35500000	         -2.95081873	         -7.45137937	         -0.16371964	         -0.01238926	          0.00000000	         -0.00625148	          0.00000000	          0.00000000	          0.00000000	         -0.00000000	          0.00000000	          0.00000000	          0.00000000	         -0.00170791	          0.00000000	          0.00000000	          0.00000000	          0.00000000	
          2.36000000	         -2.38806836	         -6.06424991	         -0.11175266	         -0.01609506	          0.00000000	         -0.00817534	          0.00000000	          0.00000000	          0.00000000	         -0.00000000	          0.00000000	          0.00000000	          0.00000000	         -0.00122503	          0.00000000	          0.00000000	          0.00000000	          0.00000000	
          2.36500000	         -1.83832012	         -4.69510182	         -0.06958895	         -0.01719860	          0.00000000	         -0.00876251	          0.00000000	          0.00000000	          0.00000000	         -0.00000000	          0.00000000	          0.00000000	          0.00000000	         -0.00081849	          0.00000000	          0.00000000	          0.00000000	          0.00000000	
          2.37000000	         -1.34038833	         -3.44576788	         -0.03704654	         -0.01654607	          0.00000000	         -0.00844604	          0.00000000	          0.00000000	          0.00000000	         -0.00000000	          0.00000000	          0.00000000	          0.00000000	         -0.00049304	          0.00000000	          0.00000000	          0.00000000	          0.00000000	
          2.37500000	         -0.91506581	         -2.37207566	         -0.01324779	         -0.01481903	          0.00000000	         -0.00757512	          0.00000000	          0.00000000	          0.00000000	         -0.00000000	          0.00000000	          0.00000000	          0.00000000	         -0.00024535	          0.00000000	          0.00000000	          0.00000000	          0.00000000	
          2.38000000	         -0.56994408	         -1.49593513	          0.00306163	         -0.01253950	          0.00000000	         -0.00641751	          0.00000000	         -0.00000000	          0.00000000	         -0.00000000	          0.00000000	          0.00000000	          0.00000000	         -0.00006710	          0.00000000	          0.00000000	          0.00000000	          0.00000000	
          2.38500000	         -0.30354851	         -0.81577280	          0.01327841	         -0.01008596	          0.00000000	         -0.00516761	         -0.00000000	         -0.00000000	          0.00000000	         -0.00000000	          0.00000000	          0.00000000	          0.00000000	          0.00005251	          0.00000000	          0.00000000	          0.00000000	          0.00000000	
          2.39000000	         -0.10870717	         -0.31508011	          0.01878007	         -0.00771488	          0.00000000	         -0.00395738	         -0.00000000	         -0.00000000	          0.00000000	         -0.00000000	          0.00000000	          0.00000000	          0.00000000	          0.00012506	          0.00000000	          0.00000000	          0.00000000	          0.00000000	
          2.39500000	          0.02483822	          0.03092344	          0.02082290	         -0.00558419	          0.00000000	         -0.00286830	         -0.00000000	         -0.00000000	         -0.00000000	         -0.00000000	          0.00000000	          0.00000000	          0.00000000	          0.00016170	          0.00000000	          0.00000000	          0.00000000	          0.00000000	
          2.40000000	          0.10851389	          0.25036314	          0.02048609	         -0.00377618	          0.00000000	         -0.00194305	         -0.00000000	         -0.00000000	         -0.00000000	          0.00000000	          0.00000000	         -0.00000000	          0.00000000	          0.00017240	          0.00000000	          0.00000000	          0.00000000	          0.00000000	
          2.40500000	          0.15359135	          0.37128488	          0.01864989	         -0.00231809	          0.00000000	         -0.00119603	         -0.00000000	         -0.00000000	         -0.00000000	          0.00000000	          0.00000000	         -0.00000000	          0.00000000	          0.00016563	          0.00000000	          0.00000000	         -0.00000000	          0.00000000	
          2.41000000	          0.17035142	          0.41946550	          0.01599740	         -0.00119971	          0.00000000	         -0.00062239	         -0.00000000	         -0.00000000	         -0.00000000	          0.00000000	          0.00000000	         -0.00000000	          0.00000000	          0.00014819	          0.00000000	          0.00000000	         -0.00000000	          0.00000000	
          2.41500000	          0.16762660	          0.41718815	          0.01303120	         -0.00038764	          0.00000000	         -0.00020530	         -0.00000000	         -0.00000000	         -0.00000000	          0.00000000	          0.00000000	         -0.00000000	          0.00000000	          0.00012529	          0.00000000	          0.00000000	         -0.00000000	          0.00000000	
          2.42000000	          0.15262198	          0.38273319	          0.01009843	          0.00016379	          0.00000000	          0.00007841	         -0.00000000	         -0.00000000	         -0.00000000	          0.00000000	          0.00000000	         -0.00000000	          0.00000000	          0.00010069	          0.00000000	          0.00000000	         -0.00000000	          0.00000000	
          2.42500000	          0.13092926	          0.33036832	          0.00741903	          0.00050446	          0.00000000	          0.00025414	         -0.00000000	         -0.00000000	         -0.00000000	          0.00000000	          0.00000000	         -0.00000000	          0.00000000	          0.00007695	          0.00000000	          0.00000000	         -0.00000000	          0.00000000	
